<?xml version="1.0" encoding="utf-8"?>
<!-- Generator: Adobe Illustrator 14.0.0, SVG Export Plug-In . SVG Version: 6.00 Build 43363)  -->
<!DOCTYPE svg PUBLIC "-//W3C//DTD SVG 1.1//EN" "http://www.w3.org/Graphics/SVG/1.1/DTD/svg11.dtd">
<svg version="1.1" id="Layer_1" xmlns="http://www.w3.org/2000/svg" xmlns:xlink="http://www.w3.org/1999/xlink" x="0" y="0"
    width="70" height="25" viewBox="0 0 71 26" xml:space="preserve">

<style type="text/css">
<![CDATA[
   .st0{fill:#E6D8F1;stroke:#010101;}
]]>
</style>

<g transform="translate(0.5 0.5)"> 
<path class="st0" d="M 70 25 H 0 V 0 H 70 V25Z" fill="#E6D8F1" stroke="#010101" stroke-width="1px"/>
<path class="st0" d="M 19.5 0 v 25Z" stroke="#010101" stroke-width="1px" />
<path class="st0" d="M9.197 17.49 5.441 9.311v6.495c0 .597.064.97.193 1.118c.177.2.457.301.839.301H6.817V17.49H3.434v-.265h.345c.41 0 .702-.124.875-.373c.105-.153.157-.502.157-1.046V9.454C4.811 9.024 4.764 8.713 4.667 8.522C4.6 8.385 4.477 8.269 4.297 8.176C4.118 8.083 3.83 8.036 3.433 8.036V7.771h2.753l3.526 7.605 3.47-7.605h2.753v.265h-.337c-.416 0-.709.125-.882.373c-.105.153-.157.501-.157 1.046v6.352c0 .597.067.97.201 1.118c.177.2.456.301.839.301h.337v.265h-4.129v-.265h.344c.415 0 .707-.124.875-.373c.105-.153.157-.502.157-1.046V9.312L9.434 17.49H9.197z"  fill="#010101" stroke="#010101" />
 </g>

<rect
    class="st0"
    id="rect3703"
    width="71"
    height="26"
    x="0"
    y="0"
    style="fill:none;fill-opacity:1;stroke:none;stroke-width:1;stroke-linejoin:round;stroke-miterlimit:4;stroke-dasharray:none"
/>
</svg>
