<?xml version="1.0" encoding="utf-8"?>
<!-- Generator: Adobe Illustrator 14.0.0, SVG Export Plug-In . SVG Version: 6.00 Build 43363)  -->
<!DOCTYPE svg PUBLIC "-//W3C//DTD SVG 1.1//EN" "http://www.w3.org/Graphics/SVG/1.1/DTD/svg11.dtd">
<svg version="1.1" id="Layer_1" xmlns="http://www.w3.org/2000/svg" xmlns:xlink="http://www.w3.org/1999/xlink" x="0" y="0"
    width="70" height="25" viewBox="0 0 71 26" xml:space="preserve">

<style type="text/css">
<![CDATA[
   .st0{fill:#E6D8F1;stroke:#010101;}
]]>
</style>
<g transform="translate(0.5 0.5)"> 
<path class="st0" d="M 70 25 H 0 V 0 H 70 V25Z" fill="#E6D8F1" stroke="#010101" stroke-width="1px"/>
<path class="st0" d="M 19.5 0 v 25Z" stroke="#010101" stroke-width="1px" />
<path class="st0" d="M8.8779 8.1095V11.9425h1.776c.408 0 .705-.09.895-.271c.189-.18.315-.537.378-1.069h.267v3.302H11.9269C11.9209 13.5255 11.8719 13.2475 11.7809 13.0705C11.6869 12.8925 11.5559 12.7595 11.3919 12.6715C11.2269 12.5825 10.9809 12.5375 10.6539 12.5375H8.8779v3.064c0 .495.031.82.094.978c.047.123.148.225.302.31c.211.117.432.175.662.175h.351v.266H6.1019v-.266h.344c.402 0 .695-.119.878-.353c.115-.153.172-.523.172-1.109V9.3025C7.4959 8.8085 7.4659 8.4825 7.4029 8.3235C7.3549 8.2035 7.2559 8.0995 7.1079 8.0145C6.9029 7.8995 6.6819 7.8405 6.4469 7.8405H6.1029V7.5745h7.257l.093 2.144H13.2009C13.0759 9.2625 12.9309 8.9285 12.7669 8.7165C12.6029 8.5035 12.3979 8.3465 12.1559 8.2515C11.9129 8.1575 11.5379 8.1085 11.0299 8.1085l-2.152.001 0 0z"  fill="#010101" stroke="#010101" />

 </g>


<rect
    class="st0"
    id="rect3703"
    width="71"
    height="26"
    x="0"
    y="0"
    style="fill:none;fill-opacity:1;stroke:none;stroke-width:1;stroke-linejoin:round;stroke-miterlimit:4;stroke-dasharray:none"
/>
</svg>
