<?xml version="1.0" encoding="utf-8"?>
<!-- Generator: Adobe Illustrator 14.0.0, SVG Export Plug-In . SVG Version: 6.00 Build 43363)  -->
<!DOCTYPE svg PUBLIC "-//W3C//DTD SVG 1.1//EN" "http://www.w3.org/Graphics/SVG/1.1/DTD/svg11.dtd">
<svg version="1.1" id="Layer_1" xmlns="http://www.w3.org/2000/svg" xmlns:xlink="http://www.w3.org/1999/xlink" x="0" y="0"
   width="71" height="28" viewBox="0 0 72 30" xml:space="preserve">
<g transform="translate(0.5 0.5)">
   <path class="st0" d="M14 0 66 0c5 1 5 14 5 14C71 27 66 28 66 28L14 28c5-1 5-14 5-14C19 14 19 1 14 0Z" fill="#FFE0D2" stroke="#010101" stroke-width="1px" />
   <path class="st0" d="M 6.5664062 0 C 6.5664062 2.3684758e-15 1.9003906 0.93307292 1.9003906 13.066406 C 1.9003906 13.066406 1.8997396 25.199479 6.5664062 26.132812 L 14.966797 26.132812 C 19.633464 25.199479 19.632812 13.066406 19.632812 13.066406 C 19.632812 13.066406 19.633464 0.93333333 14.966797 0 L 6.5664062 0 z "
   transform="matrix(1.0714286,0,0,1.0714286,-2.0357143,0)" fill="#E6D8F1" stroke="#010101" stroke-width="1px" />
</g>

<rect
    class="st0"
    id="rect3703"
    width="72"
    height="29"
    x="0"
    y="0"
    style="fill:none;fill-opacity:1;stroke:none;stroke-width:1;stroke-linejoin:round;stroke-miterlimit:4;stroke-dasharray:none"/>
</svg>
