<?xml version="1.0" encoding="utf-8"?>
<!-- Generator: Adobe Illustrator 14.0.0, SVG Export Plug-In . SVG Version: 6.00 Build 43363)  -->
<!DOCTYPE svg PUBLIC "-//W3C//DTD SVG 1.1//EN" "http://www.w3.org/Graphics/SVG/1.1/DTD/svg11.dtd">
<svg version="1.1" id="Layer_1" xmlns="http://www.w3.org/2000/svg" xmlns:xlink="http://www.w3.org/1999/xlink" x="0" y="0"
   width="41" height="27" viewBox="0 0 42 28" xml:space="preserve">
<g transform="translate(0.5 0.5)">  
<path class="st0" d="M 0.25 2.8925781 L 0.25 6.75 C 1.6755051 5.0869107 3.630644 3.8371092 5.7636719 2.8925781 L 0.25 2.8925781 z M 34.419922 2.8925781 C 36.46481 3.8371216 38.359597 5.0868477 39.785156 6.75 L 39.785156 2.8925781 L 34.419922 2.8925781 z M 0.25 19.285156 L 0.25 23.142578 L 5.7636719 23.142578 C 3.6306616 22.198049 1.675495 20.948234 0.25 19.285156 z M 39.785156 19.285156 C 38.359608 20.948296 36.464792 22.198037 34.419922 23.142578 L 39.785156 23.142578 L 39.785156 19.285156 z "
   transform="matrix(1.037037,0,0,1.037037,-0.25925926,0)"
 fill="#DDFFCC" stroke="#010101" stroke-width="1px" />
<path class="st0" d="M41 20c-6 7-20 7-20 7C21 27 6 27 0 20L0 7C6 0 21 0 21 0C21 0 35 0 41 7Z" fill="#DDFFCC" stroke="#010101" stroke-width="1px" />
</g>


<rect
    class="st0"
    id="rect3703"
    width="42"
    height="28"
    x="0"
    y="0"
    style="fill:none;fill-opacity:1;stroke:none;stroke-width:1;stroke-linejoin:round;stroke-miterlimit:4;stroke-dasharray:none"
/>
</svg>