<?xml version="1.0" encoding="UTF-8" standalone="no"?>
<!-- Generator: Adobe Illustrator 14.0.0, SVG Export Plug-In . SVG Version: 6.00 Build 43363)  -->

<svg
   xmlns:dc="http://purl.org/dc/elements/1.1/"
   xmlns:cc="http://creativecommons.org/ns#"
   xmlns:rdf="http://www.w3.org/1999/02/22-rdf-syntax-ns#"
   xmlns:svg="http://www.w3.org/2000/svg"
   xmlns="http://www.w3.org/2000/svg"
   xmlns:sodipodi="http://sodipodi.sourceforge.net/DTD/sodipodi-0.dtd"
   xmlns:inkscape="http://www.inkscape.org/namespaces/inkscape"
   version="1.1"
   id="Layer_1"
   x="0px"
   y="0px"
   width="56.689999"
   height="28.35"
   viewBox="0 0 56.69 28.35"
   xml:space="preserve"
   inkscape:version="0.92.4 (5da689c313, 2019-01-14)"
   sodipodi:docname="function.svg"><metadata
   id="metadata27"><rdf:RDF><cc:Work
       rdf:about=""><dc:format>image/svg+xml</dc:format><dc:type
         rdf:resource="http://purl.org/dc/dcmitype/StillImage" /></cc:Work></rdf:RDF></metadata><defs
   id="defs25"><inkscape:perspective
   sodipodi:type="inkscape:persp3d"
   inkscape:vp_x="0 : 10.63 : 1"
   inkscape:vp_y="0 : 1000 : 0"
   inkscape:vp_z="56.689999 : 10.63 : 1"
   inkscape:persp3d-origin="28.344999 : 7.0866667 : 1"
   id="perspective29" />
	
	
	
</defs><sodipodi:namedview
   pagecolor="#ffffff"
   bordercolor="#666666"
   borderopacity="1"
   objecttolerance="10"
   gridtolerance="10"
   guidetolerance="10"
   inkscape:pageopacity="0"
   inkscape:pageshadow="2"
   inkscape:window-width="1172"
   inkscape:window-height="759"
   id="namedview23"
   showgrid="false"
   inkscape:zoom="9.5254897"
   inkscape:cx="25.209631"
   inkscape:cy="12.687637"
   inkscape:window-x="2656"
   inkscape:window-y="10"
   inkscape:window-maximized="0"
   inkscape:current-layer="Layer_1" />
<style
   type="text/css"
   id="style3">

	.st2{fill:#D6BCD7;stroke:#010101;stroke-width:1.5px;}
	.st0{fill:#FBEE9A;}
	.st1{fill:#010101;}

</style>
<rect
   style="fill:#d6bcd7;stroke:#010101;stroke-width:1.80486166px;fill-opacity:1"
   id="rect15"
   height="25.320139"
   width="36.927273"
   class="st2"
   y="1.7774311"
   x="18.420294" /><rect
   style="fill:#d6bcd7;stroke:#010101;stroke-width:1.80486166px;fill-opacity:1"
   id="rect17"
   height="25.320139"
   width="17.293718"
   class="st2"
   y="1.7774311"
   x="1.1524309" /><g
   id="g19"
   transform="translate(0.41992596,3.7198885)">
		<path
   style="fill:#010101"
   id="path21"
   d="M 8.458,6.167 V 10 h 1.776 c 0.408,0 0.705,-0.09 0.895,-0.271 0.189,-0.18 0.315,-0.537 0.378,-1.069 h 0.267 v 3.302 H 11.507 C 11.501,11.583 11.452,11.305 11.361,11.128 11.267,10.95 11.136,10.817 10.972,10.729 10.807,10.64 10.561,10.595 10.234,10.595 H 8.458 v 3.064 c 0,0.495 0.031,0.82 0.094,0.978 0.047,0.123 0.148,0.225 0.302,0.31 0.211,0.117 0.432,0.175 0.662,0.175 h 0.351 v 0.266 H 5.682 v -0.266 h 0.344 c 0.402,0 0.695,-0.119 0.878,-0.353 0.115,-0.153 0.172,-0.523 0.172,-1.109 V 7.36 C 7.076,6.866 7.046,6.54 6.983,6.381 6.935,6.261 6.836,6.157 6.688,6.072 6.483,5.957 6.262,5.898 6.027,5.898 H 5.683 V 5.632 h 7.257 l 0.093,2.144 H 12.781 C 12.656,7.32 12.511,6.986 12.347,6.774 12.183,6.561 11.978,6.404 11.736,6.309 11.493,6.215 11.118,6.166 10.61,6.166 l -2.152,10e-4 0,0 z"
   class="st1" />
	</g>
</svg>